<?xml version="1.0" encoding="UTF-8" standalone="no"?>
<svg
   xmlns:dc="http://purl.org/dc/elements/1.1/"
   xmlns:cc="http://creativecommons.org/ns#"
   xmlns:rdf="http://www.w3.org/1999/02/22-rdf-syntax-ns#"
   xmlns:svg="http://www.w3.org/2000/svg"
   xmlns="http://www.w3.org/2000/svg"
   xmlns:sodipodi="http://sodipodi.sourceforge.net/DTD/sodipodi-0.dtd"
   xmlns:inkscape="http://www.inkscape.org/namespaces/inkscape"
   width="210mm"
   height="297mm"
   viewBox="0 0 210 297"
   version="1.1"
   id="svg8"
   sodipodi:docname="plus.svg"
   inkscape:version="1.0.2-2 (e86c870879, 2021-01-15)">
  <defs
     id="defs2">
    <filter
       inkscape:collect="always"
       style="color-interpolation-filters:sRGB"
       id="filter935"
       x="-1.2e-06"
       width="1.0000024"
       y="-1.2e-06"
       height="1.0000024">
      <feGaussianBlur
         inkscape:collect="always"
         stdDeviation="8.2784953e-05"
         id="feGaussianBlur937" />
    </filter>
  </defs>
  <sodipodi:namedview
     id="base"
     pagecolor="#ffffff"
     bordercolor="#666666"
     borderopacity="1.0"
     inkscape:pageopacity="0.0"
     inkscape:pageshadow="2"
     inkscape:zoom="0.49497475"
     inkscape:cx="206.79593"
     inkscape:cy="562.22801"
     inkscape:document-units="mm"
     inkscape:current-layer="layer2"
     inkscape:document-rotation="0"
     showgrid="false"
     inkscape:snap-center="false"
     inkscape:snap-object-midpoints="true"
     inkscape:window-width="1920"
     inkscape:window-height="1017"
     inkscape:window-x="-8"
     inkscape:window-y="-8"
     inkscape:window-maximized="1" />
  <metadata
     id="metadata5">
    <rdf:RDF>
      <cc:Work
         rdf:about="">
        <dc:format>image/svg+xml</dc:format>
        <dc:type
           rdf:resource="http://purl.org/dc/dcmitype/StillImage" />
        <dc:title></dc:title>
      </cc:Work>
    </rdf:RDF>
  </metadata>
  <g
     inkscape:label="Layer 1"
     inkscape:groupmode="layer"
     id="layer1"
     style="display:none">
    <path
       d="m 93.1612,199.90404 c -1.40424,1.41249 -3.32011,2.20057 -5.31025,2.20057 -1.99014,0 -3.906009,-0.78808 -5.31025,-2.20057 L 40.131611,157.48806 c -4.40114,-4.40113 -4.40114,-11.53785 0,-15.93074 l 5.31025,-5.31162 c 4.40251,-4.40114 11.53098,-4.40114 15.93212,0 l 26.476969,26.47834 71.54463,-71.546001 c 4.40251,-4.401137 11.53786,-4.401137 15.93212,0 l 5.31025,5.31163 c 4.40114,4.401131 4.40114,11.536481 0,15.930741 z m 0,0"
       id="path893"
       style="fill:#0086cc;fill-opacity:1;stroke-width:0.352091" />
  </g>
  <g
     inkscape:groupmode="layer"
     id="layer3"
     inkscape:label="Layer 3"
     style="display:inline">
    <path
       d="M 181.88084,129.93927 H 125.4364 V 73.494834 c 0,-6.231489 -5.0574,-11.28889 -11.28889,-11.28889 h -7.52546 c -6.23149,0 -11.28888,5.0574 -11.28888,11.28889 V 129.93927 H 38.888722 c -6.23149,0 -11.288892,5.0574 -11.288892,11.28889 v 7.52546 c 0,6.23149 5.057402,11.28889 11.288892,11.28889 H 95.33317 v 56.44444 c 0,6.23149 5.05739,11.28889 11.28888,11.28889 h 7.52546 c 6.23149,0 11.28889,-5.0574 11.28889,-11.28889 v -56.44444 h 56.44444 c 6.23149,0 11.28889,-5.0574 11.28889,-11.28889 v -7.52546 c 0,-6.23149 -5.0574,-11.28889 -11.28889,-11.28889 z m 0,0"
       id="path904-5"
       style="display:inline;fill:#0086cc;fill-opacity:1;stroke-width:0.352778" />
  </g>
  <g
     inkscape:groupmode="layer"
     id="layer2"
     inkscape:label="Layer 2"
     style="display:none">
    <path
       d="M 181.88084,129.93928 H 125.4364 V 73.494835 c 0,-6.23149 -5.0574,-11.28889 -11.28889,-11.28889 h -7.52546 c -6.23149,0 -11.288886,5.0574 -11.288886,11.28889 v 56.444445 h -56.44445 c -6.23149,0 -11.28889,5.0574 -11.28889,11.28889 v 7.52546 c 0,6.23149 5.0574,11.28889 11.28889,11.28889 h 56.44445 v 56.44444 c 0,6.23149 5.057396,11.28889 11.288886,11.28889 h 7.52546 c 6.23149,0 11.28889,-5.0574 11.28889,-11.28889 v -56.44444 h 56.44444 c 6.23149,0 11.28889,-5.0574 11.28889,-11.28889 v -7.52546 c 0,-6.23149 -5.0574,-11.28889 -11.28889,-11.28889 z m 0,0"
       id="path904"
       style="display:inline;fill:#ff2a2a;fill-opacity:1;stroke-width:0.352778;filter:url(#filter935)"
       transform="rotate(45,110.38478,144.9909)" />
  </g>
</svg>
