<?xml version="1.0" encoding="UTF-8" standalone="no"?>
<svg
   xmlns:dc="http://purl.org/dc/elements/1.1/"
   xmlns:cc="http://creativecommons.org/ns#"
   xmlns:rdf="http://www.w3.org/1999/02/22-rdf-syntax-ns#"
   xmlns:svg="http://www.w3.org/2000/svg"
   xmlns="http://www.w3.org/2000/svg"
   xmlns:sodipodi="http://sodipodi.sourceforge.net/DTD/sodipodi-0.dtd"
   xmlns:inkscape="http://www.inkscape.org/namespaces/inkscape"
   width="249.45615mm"
   height="151.42657mm"
   viewBox="0 0 249.45614 151.42657"
   version="1.1"
   id="svg8"
   inkscape:version="1.0.2-2 (e86c870879, 2021-01-15)"
   sodipodi:docname="006-application-overview-slice-preview018.1.svg">
  <defs
     id="defs2">
    <rect
       x="0.75117803"
       y="62.911221"
       width="451.06857"
       height="212.45982"
       id="rect850" />
  </defs>
  <sodipodi:namedview
     id="base"
     pagecolor="#ffffff"
     bordercolor="#666666"
     borderopacity="1.0"
     inkscape:pageopacity="0.0"
     inkscape:pageshadow="2"
     inkscape:zoom="0.64757338"
     inkscape:cx="690.46708"
     inkscape:cy="216.79939"
     inkscape:document-units="mm"
     inkscape:current-layer="layer3"
     inkscape:document-rotation="0"
     showgrid="false"
     inkscape:snap-center="true"
     inkscape:snap-midpoints="true"
     inkscape:object-paths="true"
     inkscape:snap-intersection-paths="true"
     inkscape:window-width="1920"
     inkscape:window-height="1017"
     inkscape:window-x="-8"
     inkscape:window-y="-8"
     inkscape:window-maximized="1"
     lock-margins="false"
     fit-margin-top="0"
     fit-margin-left="0"
     fit-margin-right="0"
     fit-margin-bottom="0" />
  <metadata
     id="metadata5">
    <rdf:RDF>
      <cc:Work
         rdf:about="">
        <dc:format>image/svg+xml</dc:format>
        <dc:type
           rdf:resource="http://purl.org/dc/dcmitype/StillImage" />
        <dc:title></dc:title>
      </cc:Work>
    </rdf:RDF>
  </metadata>
  <g
     inkscape:label="Layer 1"
     inkscape:groupmode="layer"
     id="layer1"
     transform="translate(-26.455694,-97.748421)">
    <path
       id="path1026"
       style="fill:#008000;stroke:#000000;stroke-width:0.264583px;stroke-linecap:butt;stroke-linejoin:miter;stroke-opacity:1"
       d="m 30.378431,147.22984 c -8.423706,17.0228 -0.170532,54.32175 -0.170532,54.32175 a 44.01903,10.993092 0 0 0 44.014366,10.84172 44.01903,10.993092 0 0 0 44.010745,-10.78126 h 0.006 c 0,0 8.21043,-37.11364 -0.1111,-54.19359 a 44.01903,10.993092 0 0 1 0.1142,0.79013 44.01903,10.993092 0 0 1 -44.019535,10.99313 44.01903,10.993092 0 0 1 -44.019017,-10.99313 44.01903,10.993092 0 0 1 0.175183,-0.97875 z" />
    <path
       id="path1028"
       style="fill:#00ffff;stroke:#000000;stroke-width:0.264583px;stroke-linecap:butt;stroke-linejoin:miter;stroke-opacity:1"
       d="M 117.81082,203.11687 A 44.01903,10.993092 0 0 1 74.2233,212.57469 44.01903,10.993092 0 0 1 30.669886,203.1763 c 1.562941,5.53172 6.926686,25.06565 8.515241,38.17751 a 35.040562,7.5979471 0 0 0 -0.0026,0.0909 35.040562,7.5979471 0 0 0 35.040236,7.59799 35.040562,7.5979471 0 0 0 35.040757,-7.59799 35.040562,7.5979471 0 0 0 -0.001,-0.0439 c 1.60011,-13.18971 7.02272,-32.89079 8.54832,-38.28397 z" />
    <ellipse
       style="fill:none;stroke:#000000;stroke-width:0.208081;stroke-miterlimit:4;stroke-dasharray:0.208081, 0.208081;stroke-dashoffset:0"
       id="path833-6"
       cx="74.222519"
       cy="241.22333"
       rx="35.040562"
       ry="7.5979471" />
    <ellipse
       style="fill:none;stroke:#000000;stroke-width:0.280267;stroke-miterlimit:4;stroke-dasharray:0.280267, 0.560533;stroke-dashoffset:0"
       id="path833-6-2-3"
       cx="74.222519"
       cy="201.40018"
       rx="44.019032"
       ry="10.993093" />
    <path
       id="path833-6-2-3-4"
       style="fill:#00ffff;stroke:#000000;stroke-width:0.28;stroke-miterlimit:4;stroke-dasharray:none;stroke-dashoffset:0"
       d="m 39.183061,105.39467 c -4.34e-4,0.0291 -0.362575,24.19208 -8.483719,41.17371 -0.130352,0.21501 -0.23513,0.43095 -0.314193,0.64751 -5.29e-4,7.9e-4 -5.05e-4,0.002 -10e-4,0.003 -0.120489,0.33091 -0.18084,0.66302 -0.180867,0.99529 -7.9e-5,6.07133 19.707929,10.99313 44.019017,10.99313 24.311292,7e-5 44.019611,-4.92175 44.019531,-10.99313 -1.9e-4,-0.60967 -0.20346,-1.21828 -0.60772,-1.81953 -8.0175,-16.97898 -8.37106,-40.94375 -8.37106,-40.94375 a 35.040562,7.5979471 0 0 1 -35.040751,7.59799 35.040562,7.5979471 0 0 1 -35.040239,-7.59799 35.040562,7.5979471 0 0 1 10e-4,-0.0558 z" />
    <ellipse
       style="opacity:1;fill:#00ffff;stroke:#000000;stroke-width:0.208081"
       id="path833"
       cx="74.222519"
       cy="105.45041"
       rx="35.040562"
       ry="7.5979471" />
  </g>
  <g
     inkscape:groupmode="layer"
     id="layer3"
     inkscape:label="Layer 2"
     style="display:inline"
     transform="translate(-26.455694,-97.748421)">
    <ellipse
       style="fill:#008000;fill-opacity:0.883534;stroke:#000000;stroke-width:0.280267;stroke-miterlimit:4;stroke-dasharray:0.280267, 0.560533;stroke-dashoffset:0"
       id="path833-6-2-3-5"
       cx="74.222519"
       cy="148.20869"
       rx="44.019032"
       ry="10.993093" />
    <text
       xml:space="preserve"
       style="font-style:normal;font-weight:normal;font-size:10.5833px;line-height:1.25;font-family:sans-serif;fill:#00ffff;fill-opacity:1;stroke:none;stroke-width:0.264583"
       x="120.93866"
       y="128.70163"
       id="text1190"><tspan
         sodipodi:role="line"
         id="tspan1188"
         x="120.93866"
         y="128.70163"
         style="fill:#00ffff;stroke-width:0.264583">Profile 1</tspan></text>
    <text
       xml:space="preserve"
       style="font-style:normal;font-weight:normal;font-size:10.5833px;line-height:1.25;font-family:sans-serif;display:inline;fill:#00ffff;fill-opacity:1;stroke:none;stroke-width:0.264583"
       x="119.83401"
       y="229.88835"
       id="text1190-7"><tspan
         sodipodi:role="line"
         x="119.83401"
         y="229.88835"
         style="fill:#00ffff;stroke-width:0.264583"
         id="tspan844">Profile 1 (allow bottom layers</tspan><tspan
         sodipodi:role="line"
         x="119.83401"
         y="243.11748"
         style="fill:#00ffff;stroke-width:0.264583"
         id="tspan854">             and transition layers)</tspan></text>
    <text
       xml:space="preserve"
       style="font-style:normal;font-weight:normal;font-size:10.5833px;line-height:1.25;font-family:sans-serif;display:inline;fill:#008000;fill-opacity:1;stroke:none;stroke-width:0.264583"
       x="131.68272"
       y="182.49347"
       id="text1190-6"><tspan
         sodipodi:role="line"
         id="tspan1188-6"
         x="131.68272"
         y="182.49347"
         style="fill:#008000;stroke-width:0.264583">Profile 2</tspan></text>
    <text
       xml:space="preserve"
       id="text848"
       style="font-style:normal;font-weight:normal;font-size:10.5833px;line-height:1.25;font-family:sans-serif;white-space:pre;shape-inside:url(#rect850);fill:#000000;fill-opacity:1;stroke:none;" />
  </g>
</svg>
