<?xml version="1.0" encoding="UTF-8" standalone="no"?><!DOCTYPE svg PUBLIC "-//W3C//DTD SVG 1.1//EN" "http://www.w3.org/Graphics/SVG/1.1/DTD/svg11.dtd"><svg width="100%" height="100%" viewBox="0 0 74 57" version="1.1" xmlns="http://www.w3.org/2000/svg" xmlns:xlink="http://www.w3.org/1999/xlink" xml:space="preserve" xmlns:serif="http://www.serif.com/" style="fill-rule:evenodd;clip-rule:evenodd;stroke-linecap:square;stroke-linejoin:round;stroke-miterlimit:1.5;"><path d="M51.253,37.485l-3,0l-0,-4l-8,0l-0,-15l6,0l-0,-1l-4,-2l-2,0l-0,-5l9,0c1.104,0 2,0.896 2,2l-0,25Zm-0,14c-0,1.104 -0.896,2 -2,2l-24,0c-1.104,0 -2,-0.896 -2,-2l-0,-12l28,0l-0,12Zm-28,-39c-0,-1.104 0.896,-2 2,-2l9,0l-0,5l-2,0l-4,2l-0,1l6,0l-0,15l-8,0l-0,4l-3,0l-0,-25Zm13,6l2,0l-0,15l-2,0l-0,-15Zm10,19l-18,0l-0,-2l18,0l-0,2Zm-10,-27l2,0l-0,5l-2,0l-0,-5Zm13,-2l-24,0c-2.209,0 -4,1.791 -4,4l-0,39c-0,2.209 1.791,4 4,4l-0,1l6,0l-0,-1l12,0l-0,1l6,0l-0,-1c2.209,0 4,-1.791 4,-4l-0,-39c-0,-2.209 -1.791,-4 -4,-4m-16,35l8,0l-0,4l-8,0l-0,-4Zm-0,6l8,0c1.104,0 2,-0.896 2,-2l-0,-4c-0,-1.104 -0.896,-2 -2,-2l-8,0c-1.104,0 -2,0.896 -2,2l-0,4c-0,1.104 0.896,2 2,2" style="fill:#636e72;"/><g><text x="0.01px" y="38.017px" style="font-family:'ArialMT', 'Arial', sans-serif;font-size:6.768px;fill:#fdcb6e;">A1</text><path d="M7.682,14.485l3,-6l3,6l-6,0Z" style="fill:#fdcb6e;"/><path d="M10.682,38.017l0,-24.732" style="fill:none;stroke:#fdcb6e;stroke-width:2px;"/></g><g><text x="65.277px" y="13.349px" style="font-family:'ArialMT', 'Arial', sans-serif;font-size:6.768px;fill:#fdcb6e;">A2</text><path d="M64.973,32.017l-3,6l-3,-6l6,-0Z" style="fill:#fdcb6e;"/><path d="M61.973,8.485l-0,24.732" style="fill:none;stroke:#fdcb6e;stroke-width:2px;"/></g></svg>