<svg xmlns="http://www.w3.org/2000/svg" viewBox="0 0 103.12 102.67"><defs><style>.cls-1{fill:none;}.cls-2{fill:#656565;}.cls-3{fill:#e5e5e5;}.cls-4{opacity:0.8;}.cls-5{fill:#212121;}.cls-6{fill:#474747;}.cls-7{fill:#2b2b2b;}.cls-8{fill:#a5a5a5;}.cls-9{fill:#9a9a9a;}.cls-10{fill:#f2f2f2;}.cls-11{fill:#676767;}.cls-12{fill:#fff;}</style></defs><g id="Layer_1" data-name="Layer 1"><rect class="cls-1" x="41.2" y="3" width="20" height="20"/><path class="cls-2" d="M63,20.64a1,1,0,0,1-1-1,10.47,10.47,0,0,0-1.6-5.81,4.67,4.67,0,0,0-2.7-2.11,4.34,4.34,0,0,1,.8-.08c3,0,5.5,3.58,5.5,8A1,1,0,0,1,63,20.64Z" transform="translate(-4.8 -3.14)"/><path class="cls-3" d="M59.83,10.5a8.23,8.23,0,0,1,.93.72,4.81,4.81,0,0,0-2.29-.58c-2.37,0-4.44,1.75-5.58,4.36A11.27,11.27,0,0,0,52,19.64a1,1,0,0,1-2,0,12.64,12.64,0,0,1,1.93-6.92,7.63,7.63,0,0,1,2.2-2.22A5.22,5.22,0,0,1,59.83,10.5Z" transform="translate(-4.8 -3.14)"/><path class="cls-3" d="M47,18.67a.85.85,0,0,0,.26.62l3.09,3.1a.88.88,0,0,0,1.24,0l3.09-3.1a.88.88,0,0,0,0-1.24.87.87,0,0,0-.62-.25H47.88A.87.87,0,0,0,47,18.67Z" transform="translate(-4.8 -3.14)"/><rect class="cls-1" x="41.2" y="82.67" width="20" height="20"/><path class="cls-2" d="M63,91.32a1,1,0,0,0-1,1,10.62,10.62,0,0,1-1.59,5.8,4.68,4.68,0,0,1-2.71,2.11,3.57,3.57,0,0,0,.8.09c3,0,5.5-3.59,5.5-8A1,1,0,0,0,63,91.32Z" transform="translate(-4.8 -3.14)"/><path class="cls-3" d="M59.83,101.45a7.14,7.14,0,0,0,.93-.71,5.09,5.09,0,0,1-2.3.58c-2.36,0-4.43-1.75-5.57-4.37A11.19,11.19,0,0,1,52,92.32a1,1,0,0,0-2,0,12.44,12.44,0,0,0,1.93,6.91,7.39,7.39,0,0,0,2.2,2.22,5.37,5.37,0,0,0,2.88.87A5.32,5.32,0,0,0,59.83,101.45Z" transform="translate(-4.8 -3.14)"/><path class="cls-3" d="M47,93.28a.83.83,0,0,1,.26-.61l3.09-3.1a.88.88,0,0,1,1.24,0l3.09,3.1a.87.87,0,0,1,0,1.23.84.84,0,0,1-.62.26H47.87A.87.87,0,0,1,47,93.28Z" transform="translate(-4.8 -3.14)"/><path class="cls-2" d="M20.54,51.86a1,1,0,0,1-1,1,10.63,10.63,0,0,0-5.81,1.59,4.69,4.69,0,0,0-2.11,2.7,3.56,3.56,0,0,1-.08-.8c0-3,3.58-5.5,8-5.5a1,1,0,0,1,1,1Z" transform="translate(-4.8 -3.14)"/><path class="cls-3" d="M10.4,55a7.14,7.14,0,0,1,.71-.93,5,5,0,0,0-.57,2.3c0,2.36,1.74,4.43,4.36,5.57a11.2,11.2,0,0,0,4.64.94,1,1,0,1,1,0,2A12.52,12.52,0,0,1,12.62,63a7.66,7.66,0,0,1-2.22-2.21,5.22,5.22,0,0,1,0-5.75Z" transform="translate(-4.8 -3.14)"/><path class="cls-3" d="M18.57,67.83a.9.9,0,0,0,.62-.25l3.09-3.1a.87.87,0,0,0,0-1.23l-3.09-3.1a.88.88,0,0,0-1.24,0,.87.87,0,0,0-.26.62V67a.87.87,0,0,0,.88.87Z" transform="translate(-4.8 -3.14)"/><rect class="cls-1" x="81.12" y="47.4" width="20" height="20"/><path class="cls-2" d="M91.42,53.57a1,1,0,0,0,1,1,10.63,10.63,0,0,1,5.81,1.59,4.7,4.7,0,0,1,2.11,2.7,3.56,3.56,0,0,0,.08-.8c0-3-3.58-5.5-8-5.5a1,1,0,0,0-1,1Z" transform="translate(-4.8 -3.14)"/><path class="cls-3" d="M101.56,56.71a6.42,6.42,0,0,0-.72-.93,4.88,4.88,0,0,1,.58,2.3c0,2.36-1.75,4.43-4.36,5.57a11.2,11.2,0,0,1-4.64.94,1,1,0,1,0,0,2,12.52,12.52,0,0,0,6.92-1.92,7.66,7.66,0,0,0,2.22-2.21,5.22,5.22,0,0,0,0-5.75Z" transform="translate(-4.8 -3.14)"/><path class="cls-3" d="M93.39,69.54a.9.9,0,0,1-.62-.25l-3.09-3.1a.87.87,0,0,1,0-1.23l3.09-3.1a.88.88,0,0,1,1.24,0,.9.9,0,0,1,.26.62v6.19a.87.87,0,0,1-.88.87Z" transform="translate(-4.8 -3.14)"/></g><g id="Layer_4" data-name="Layer 4"><g class="cls-4"><polygon class="cls-5" points="29.28 43.27 56.96 50.2 56.96 83.53 29.28 75.32 29.28 43.27"/><path class="cls-6" d="M61.76,53.34,34.08,46.41,53.83,36.33,80.6,41.48Z" transform="translate(-4.8 -3.14)"/><path class="cls-7" d="M61.76,53.34,80.6,41.48V72.76L61.76,86.68Z" transform="translate(-4.8 -3.14)"/></g><rect class="cls-1" width="24" height="24"/><path class="cls-8" d="M26.45,14l-8.9-8.51a1.11,1.11,0,0,0-1.53,0L7.15,14a1.11,1.11,0,0,0,.77,1.92H9.8v6.25a2,2,0,0,0,2,2h10a2,2,0,0,0,2-2V15.89h1.89A1.12,1.12,0,0,0,26.45,14ZM16.8,20.14c-2.76,0-5-1.57-5-3.5s2.24-3.5,5-3.5,5,1.57,5,3.5S19.56,20.14,16.8,20.14Z" transform="translate(-4.8 -3.14)"/><circle class="cls-8" cx="12" cy="13.5" r="1.5"/><g class="cls-4"><rect class="cls-1" x="79.12" y="1" width="24" height="24"/><rect class="cls-9" x="82.12" y="9" width="13" height="13"/><path class="cls-10" d="M99.92,12.14h-13l9-5h9Z" transform="translate(-4.8 -3.14)"/><path class="cls-11" d="M104.92,7.14l-5,5v13l5-9Z" transform="translate(-4.8 -3.14)"/></g></g><g id="Layer_5" data-name="Layer 5"><path class="cls-12" d="M35.28,58.68l4.35,1.08v.88l-3.31-.83V62.5l3.06.76v.86l-3.06-.76V67l-1-.26Z" transform="translate(-4.8 -3.14)"/><path class="cls-12" d="M40.78,64.13c0-.68,0-1.27-.05-1.82l.92.23,0,1.15h.05a1.3,1.3,0,0,1,1.6-.87,1.17,1.17,0,0,1,.3.11v1a1.52,1.52,0,0,0-.36-.12,1.1,1.1,0,0,0-1.41,1,2.28,2.28,0,0,0,0,.48v3.1l-1-.26Z" transform="translate(-4.8 -3.14)"/><path class="cls-12" d="M49.83,67.43c0,2.14-1.48,2.71-2.89,2.36a3.73,3.73,0,0,1-2.78-3.68c0-1.94,1.27-2.76,2.88-2.36A3.7,3.7,0,0,1,49.83,67.43Zm-4.6-1.09A2.67,2.67,0,0,0,47,69c1,.25,1.76-.51,1.76-1.82A2.65,2.65,0,0,0,47,64.53C45.77,64.22,45.23,65.24,45.23,66.34Z" transform="translate(-4.8 -3.14)"/><path class="cls-12" d="M51.17,66.47c0-.6,0-1.09-.05-1.58l.93.23.07,1h0a1.66,1.66,0,0,1,1.92-.61,2.83,2.83,0,0,1,2,3v3.46l-1.06-.26V68.33a1.87,1.87,0,0,0-1.34-2,1.13,1.13,0,0,0-1.42.73,1.55,1.55,0,0,0-.07.47V71l-1-.26Z" transform="translate(-4.8 -3.14)"/><path class="cls-12" d="M59.05,65.19v1.67l1.51.38V68l-1.51-.38v3.13c0,.72.2,1.18.79,1.33a2.44,2.44,0,0,0,.61.08l0,.8a2.38,2.38,0,0,1-.93-.09,1.94,1.94,0,0,1-1.14-.72A2.6,2.6,0,0,1,58,70.57V67.41l-.9-.23v-.8l.9.22V65.21Z" transform="translate(-4.8 -3.14)"/><path class="cls-12" d="M67.28,70.27l-.72.55-.71-1.92a1.51,1.51,0,0,0-.4-.7c-.13-.08-.28,0-.46.08l-.44.34-.11,3.83-.61.47.26-9.1,1.44-1.1c.46-.35.81-.42,1.06-.19A2,2,0,0,1,66.93,64a5.44,5.44,0,0,1-1.12,3.26v0a.4.4,0,0,1,.32.19,3.81,3.81,0,0,1,.34.72Zm-2.61-5.89-.09,3.21L65.3,67a2.24,2.24,0,0,0,.69-1,4,4,0,0,0,.29-1.43,1.25,1.25,0,0,0-.2-.93c-.15-.14-.38-.1-.68.13Z" transform="translate(-4.8 -3.14)"/><path class="cls-12" d="M67.83,69.85l.18-6.5.6-.46-.19,6.5ZM68,61.12a2,2,0,0,1,.12-.6,1,1,0,0,1,.28-.41c.1-.09.19-.09.26,0a.57.57,0,0,1,.1.43,1.78,1.78,0,0,1-.12.6,1,1,0,0,1-.28.41c-.11.08-.2.08-.26,0A.65.65,0,0,1,68,61.12Z" transform="translate(-4.8 -3.14)"/><path class="cls-12" d="M72.43,65.77q-.11,3.6-1.92,5a1.38,1.38,0,0,1-1.07.39l0-1.11a1.11,1.11,0,0,0,1.06-.23,4.26,4.26,0,0,0,1.3-3.43l0-.69h0a3.86,3.86,0,0,1-1.17,2.11q-.64.48-1-.09a3.89,3.89,0,0,1-.32-2,10.18,10.18,0,0,1,.49-3A3.83,3.83,0,0,1,71,60.91c.45-.35.77-.26,1,.26h0l0-.88.6-.46Zm-.5-2.86a1.79,1.79,0,0,0-.23-1.09c-.17-.22-.38-.23-.64,0a2.57,2.57,0,0,0-.77,1.28,7.23,7.23,0,0,0-.33,2.1,2.93,2.93,0,0,0,.22,1.47c.16.29.39.33.67.11a2.47,2.47,0,0,0,.73-1.16,5.66,5.66,0,0,0,.32-1.76Z" transform="translate(-4.8 -3.14)"/><path class="cls-12" d="M76.33,63.31l-.6.45L75.84,60c0-1.31-.2-1.77-.71-1.38a2.37,2.37,0,0,0-.65,1.07,5.18,5.18,0,0,0-.3,1.64L74.08,65l-.6.46.27-9.61.6-.46-.12,4.18h0a3.84,3.84,0,0,1,1.13-2.06c.76-.59,1.12,0,1.07,1.77Z" transform="translate(-4.8 -3.14)"/><path class="cls-12" d="M78.94,61.23a1.93,1.93,0,0,1-.53.61c-.61.47-.89.06-.85-1.23l.1-3.75-.58.44,0-.95.58-.44,0-1.57.61-.82-.06,1.93.84-.65,0,1-.83.65L78.16,60a1.8,1.8,0,0,0,.08.82c.07.13.2.13.37,0a1.26,1.26,0,0,0,.36-.48Z" transform="translate(-4.8 -3.14)"/><path class="cls-12" d="M55.64,43l-3-.53-5.25,2.16L46,44.41l5.26-2.16-3-.54.68-.28,7.41,1.31Z" transform="translate(-4.8 -3.14)"/><path class="cls-12" d="M51.86,44.23a7.86,7.86,0,0,1,2.69-.5A15.48,15.48,0,0,1,58,44a4.21,4.21,0,0,1,2.06.71c.25.28,0,.55-.66.84a8.09,8.09,0,0,1-2.64.48,15.45,15.45,0,0,1-3.36-.23,4.32,4.32,0,0,1-2.08-.72C51,44.77,51.21,44.49,51.86,44.23Zm1.38.22c-.49.21-.66.4-.5.59a2.38,2.38,0,0,0,1.33.49,9.47,9.47,0,0,0,2.15.14A5.9,5.9,0,0,0,58,45.29c.51-.22.71-.41.59-.6s-.56-.34-1.32-.47a9.11,9.11,0,0,0-2.2-.14A5.8,5.8,0,0,0,53.24,44.45Z" transform="translate(-4.8 -3.14)"/><path class="cls-12" d="M61,46.71l-2.55,1-1.32-.23L63.34,45l1.33.24-.73.3h0a12.18,12.18,0,0,1,3.41.12q1.44.26,1.68.63c.16.25-.07.51-.71.77a8.39,8.39,0,0,1-2.62.54,13.69,13.69,0,0,1-3.13-.18c-1-.17-1.47-.4-1.53-.68Zm1.14-.47c-.34.14-.44.3-.28.46a2.14,2.14,0,0,0,1.12.41,8.31,8.31,0,0,0,2.11.1A6.06,6.06,0,0,0,67,46.8c.46-.19.63-.37.52-.54s-.49-.32-1.13-.43a8.86,8.86,0,0,0-2-.13,5.19,5.19,0,0,0-1.64.31Z" transform="translate(-4.8 -3.14)"/></g></svg>