<?xml version="1.0" encoding="utf-8"?>
<!-- Generator: Adobe Illustrator 23.1.0, SVG Export Plug-In . SVG Version: 6.00 Build 0)  -->
<svg version="1.1" id="图层_1" xmlns="http://www.w3.org/2000/svg" xmlns:xlink="http://www.w3.org/1999/xlink" x="0px" y="0px"
	 viewBox="0 0 800 800" style="enable-background:new 0 0 800 800;" xml:space="preserve">
<style type="text/css">
	.st0{fill:#4EAEEE;}
</style>
<g>
	<path class="st0" d="M400,771.2c-18.3,0-32-13.8-32-32V431.9H60.9c-18.3,0-32-13.8-32-32c0-18.3,13.8-32,32-32h305.5V60.8
		c0-18.3,13.8-32,32-32s32,13.8,32,32v307.1h307.1c16.9,0,32,14.3,33.6,31.9v0.3v0.3c-0.3,18-14,31.5-32,31.5H432v307.2
		C432,757.4,418.2,771.2,400,771.2z"/>
</g>
</svg>
