<?xml version="1.0" encoding="utf-8"?>
<!-- Generator: Adobe Illustrator 23.1.0, SVG Export Plug-In . SVG Version: 6.00 Build 0)  -->
<svg version="1.1" id="图层_1" xmlns="http://www.w3.org/2000/svg" xmlns:xlink="http://www.w3.org/1999/xlink" x="0px" y="0px"
	 viewBox="0 0 800 800" style="enable-background:new 0 0 800 800;" xml:space="preserve">
<style type="text/css">
	.st0{fill:#4EAEEE;}
</style>
<g>
	<path class="st0" d="M163,771.6c-72,0-130.5-58.6-130.5-130.5V260.3c0-72,58.6-130.5,130.5-130.5h28.3v63.4H163
		c-37,0-67.2,30.1-67.2,67.2v380.8c0,37,30.1,67.2,67.2,67.2h380.8c37,0,67.2-30.1,67.2-67.2v-36.5h63.4v36.5
		c0,34.9-13.6,67.7-38.2,92.3c-24.7,24.7-57.4,38.2-92.3,38.2H163z"/>
	<path class="st0" d="M307.1,629.4c-71.5,0-129.7-58.2-129.7-129.7l-0.7-259.1V158c0-71.5,58.2-129.7,129.7-129.7h140.4v63H306.3
		c-36.7,0-66.6,29.9-66.6,66.6v82.6l0.7,259.1c0,36.8,29.9,66.7,66.6,66.7h330.8c36.7,0,66.6-29.9,66.6-66.6l-0.8-189.9h63
		l0.8,189.9c0,34.7-13.5,67.2-38,91.7c-24.5,24.5-57.1,38-91.7,38H307.1z"/>
	<path class="st0" d="M368.2,475.2l0.6-21.2c2.3-80.3,40.9-166.3,103.1-230.1c47.8-49,110.6-82.6,177.8-95.3L606.2,87
		c-8.6-8.6-13.5-19.3-13.5-29.4c0-7,3.1-15.5,7.4-20.4c4.8-5.5,11.7-8.6,19.2-8.8c0.3,0,0.6,0,0.9,0c9.7,0,20.1,4.8,28.5,13.2
		l90.5,90.7l0.1,0.1c10.1,10.3,10.1,21.2,10.1,24.8c0,8.6-5.4,17.9-8.2,22.1l-0.2,0.3c-10.2,17.3-61.2,103.8-67.8,112.4
		c-7.9,10.3-16.7,15-28.4,15.1h-0.1c-8.7,0-19.1-6.4-23.3-11.1c-4.4-5-6.8-11.3-6.8-18.3c0-8.9,2.9-17.8,9-27.1l33.7-58.6
		C538.1,219.1,436,337,431.6,455.3l-0.8,19.8H368.2z"/>
</g>
</svg>
