<?xml version="1.0" encoding="utf-8"?>
<!-- Generator: Adobe Illustrator 23.1.0, SVG Export Plug-In . SVG Version: 6.00 Build 0)  -->
<svg version="1.1" id="图层_1" xmlns="http://www.w3.org/2000/svg" xmlns:xlink="http://www.w3.org/1999/xlink" x="0px" y="0px"
	 viewBox="0 0 800 800" style="enable-background:new 0 0 800 800;" xml:space="preserve">
<style type="text/css">
	.st0{fill:#4EAEEE;}
</style>
<path class="st0" d="M194.7,769.2c-40.1,0-72.7-32.6-72.7-72.7V286c0-14.9,12.2-27.1,27.1-27.1c14.9,0,27.1,12.2,27.1,27.1v410.6
	c0,10.2,8.3,18.5,18.5,18.5h410.6c10.2,0,18.5-8.3,18.5-18.5V286c0-14.9,12.2-27.1,27.1-27.1c14.9,0,27.1,12.2,27.1,27.1v410.6
	c0,40.1-32.6,72.7-72.7,72.7H194.7z M491.2,632.4c-14.9,0-27.1-12.2-27.1-27.1V286c0-14.9,12.2-27.1,27.1-27.1
	c14.9,0,27.1,12.2,27.1,27.1v319.3C518.3,620.2,506.2,632.4,491.2,632.4z M308.8,632.4c-14.9,0-27.1-12.2-27.1-27.1V286
	c0-14.9,12.2-27.1,27.1-27.1c14.9,0,27.1,12.2,27.1,27.1v319.3C335.9,620.2,323.7,632.4,308.8,632.4z M57.9,221.8
	c-14.9,0-27.1-12.2-27.1-27.1c0-14.9,12.2-27.1,27.1-27.1h113.6V80.7c0-27.5,22.4-49.9,49.9-49.9h361.2c27.5,0,49.9,22.4,49.9,49.9
	v86.9h109.8c14.9,0,27.1,12.2,27.1,27.1c0,14.9-12.2,27.1-27.1,27.1H57.9z M225.6,167.6h352.6V85H225.6V167.6z"/>
</svg>
