<?xml version="1.0" encoding="utf-8"?>
<!-- Generator: Adobe Illustrator 23.1.0, SVG Export Plug-In . SVG Version: 6.00 Build 0)  -->
<svg version="1.1" id="图层_1" xmlns="http://www.w3.org/2000/svg" xmlns:xlink="http://www.w3.org/1999/xlink" x="0px" y="0px"
	 viewBox="0 0 800 800" style="enable-background:new 0 0 800 800;" xml:space="preserve">
<style type="text/css">
	.st0{fill:#4EAEEE;}
</style>
<g>
	<path class="st0" d="M50,775.9c-14.8,0-26.8-12-26.8-26.8s12-26.8,26.8-26.8H750c14.8,0,26.8,12,26.8,26.8s-12,26.8-26.8,26.8H50z
		 M78.1,512l367.6-367.7L565.8,24.1L728,186.3L240.2,674.1L60,692.2L78.1,512z M119.7,632.4l96.1-9.7l335-335.2l-86.4-86.4
		L129.3,536.3L119.7,632.4z M588.9,249.7l63.4-63.4l-86.5-86.5l-63.4,63.5L588.9,249.7z"/>
</g>
</svg>
