<?xml version="1.0" encoding="utf-8"?>
<!-- Generator: Adobe Illustrator 23.1.0, SVG Export Plug-In . SVG Version: 6.00 Build 0)  -->
<svg version="1.1" id="图层_1" xmlns="http://www.w3.org/2000/svg" xmlns:xlink="http://www.w3.org/1999/xlink" x="0px" y="0px"
	 viewBox="0 0 800 800" style="enable-background:new 0 0 800 800;" xml:space="preserve">
<style type="text/css">
	.st0{fill:#4EAEEE;}
</style>
<g>
	<path class="st0" d="M175.7,771.6c-81.2,0-147.3-66.1-147.3-147.3V175.7c0-81.2,66.1-147.3,147.3-147.3h216.2V90H175.7
		C128.4,90,90,128.4,90,175.7v448.7c0,47.3,38.4,85.7,85.7,85.7h448.7c47.3,0,85.7-38.4,85.7-85.7v-262h61.6v262
		c0,39.3-15.3,76.3-43.1,104.1c-27.8,27.8-64.8,43.1-104.1,43.1H175.7z"/>
	<path class="st0" d="M312,545.4l0.5-18.4c2.7-93.7,47.7-194.1,120.5-268.7c59.2-60.7,136.8-100.5,220.3-113.5l-60.9-58.2
		c-9-9-14.1-20-14.1-30.2c0-6.7,3.1-15.2,7.1-19.8c4.5-5.1,10.9-8,18.1-8.2c0.3,0,0.6,0,0.9,0c9.8,0,20.4,5,29.1,13.7l107.3,107.6
		l0.1,0.1c9.1,9.2,10.1,18.6,10.1,24.8c0,9-6.5,19.4-9.1,23.2l0,0c-7.4,12.5-72.2,122.6-80,132.7c-8.2,10.6-16.7,15.2-28.5,15.3
		h-0.1c-8,0-18.6-6.4-22.7-11c-4.2-4.7-6.4-10.7-6.4-17.4c0-9.3,3.2-18.7,9.7-28.7l47.4-82.4c-149.5,26.3-281.8,172.4-287.4,321.8
		l-0.7,17.2H312z"/>
</g>
</svg>
