<?xml version="1.0" encoding="utf-8"?>
<!-- Generator: Adobe Illustrator 23.1.0, SVG Export Plug-In . SVG Version: 6.00 Build 0)  -->
<svg version="1.1" id="图层_1" xmlns="http://www.w3.org/2000/svg" xmlns:xlink="http://www.w3.org/1999/xlink" x="0px" y="0px"
	 viewBox="0 0 800 800" style="enable-background:new 0 0 800 800;" xml:space="preserve">
<style type="text/css">
	.st0{fill:#4EAEEE;}
</style>
<g>
	<path class="st0" d="M175.9,771.2c-39.3,0-76.2-15.3-104-43.1c-27.8-27.8-43.1-64.7-43.1-104V297.7h61.5v326.3
		c0,47.2,38.4,85.6,85.6,85.6h448.1c47.2,0,85.6-38.4,85.6-85.6V175.9c0-47.2-38.4-85.6-85.6-85.6H383.1V28.8h240.9
		c81.1,0,147.1,66,147.1,147.1v448.1c0,81.1-66,147.1-147.1,147.1H175.9z"/>
	<path class="st0" d="M445.9,531.1c-7.5,0-16.2-5.1-24.4-10.7l-0.3-0.2c-3.1-2-86.4-54.1-130.3-81.5l-0.2-0.1l-0.2-0.1
		c-10.1-7.2-15.1-16.6-14.8-28.1c0.2-7.6,5.2-16.6,9.9-20.8c4.7-4.2,10.7-6.4,17.4-6.4c9.3,0,18.7,3.2,28.7,9.7l82.1,47.2
		C385.6,291.9,222.7,151.2,67.6,145.4l-17.2-0.6V83.6l18.3,0.5c46.9,1.4,100.5,15.7,154.9,41.4c50.6,23.9,97.8,56,133,90.3
		c65,63.4,105.8,138,118.8,216.8l60.8-62.1c5.9-5.9,15.1-13.7,27.6-14.4c0.4,0,0.7,0,1.1,0c6.2,0,12.5,2.8,18.7,8.3
		c5.6,4.9,8.9,11.6,9.1,18.4c0.3,9.4-4.9,19.9-14.5,29.6L470.5,519.7l-0.1,0.1C462.7,527.3,454.5,531.1,445.9,531.1L445.9,531.1z"/>
</g>
</svg>
