<?xml version="1.0" encoding="utf-8"?>
<!-- Generator: Adobe Illustrator 23.1.0, SVG Export Plug-In . SVG Version: 6.00 Build 0)  -->
<svg version="1.1" id="图层_1" xmlns="http://www.w3.org/2000/svg" xmlns:xlink="http://www.w3.org/1999/xlink" x="0px" y="0px"
	 viewBox="0 0 800 800" style="enable-background:new 0 0 800 800;" xml:space="preserve">
<style type="text/css">
	.st0{fill:#4EAEEE;}
</style>
<g>
	<path class="st0" d="M400.2,773.4c-110.1,0-214-48.2-285.2-132.1c-51.6-61-81.7-135.6-87.1-215.7c0-0.6-0.2-1-0.2-1.3
		c0,0,0-0.1,0-0.1c-2.5-17,9.3-33,26.4-35.6c1.6-0.2,3.2-0.4,4.8-0.4c15.6,0,28.6,11.2,30.9,26.6c0.2,1.5,0.2,3.1,0.2,4.7v2.8h0.6
		c4.6,66.2,29.6,127.8,72.5,178.4c59.1,69.8,145.6,109.9,237.2,109.9c73.2,0,144.4-26.1,200.4-73.4l2.2-1.8l-30.3-35.8
		c-5.8-6.8-7.5-16-4.4-24.4c3-8.5,10.1-14.5,19-16.1L737.2,532c1.5-0.3,3.1-0.4,4.6-0.4c8,0,15.6,4,20.2,10.6
		c4.7,6.7,5.8,14.9,3,22.6l-51.6,143.6c-3.6,10-12.8,16.5-23.5,16.5c0,0,0,0,0,0c-7.4,0-14.1-3.1-18.9-8.8l-27.8-32.8l-2.2,1.8
		c-34.3,29-72.9,51.3-114.8,66.4C485.9,766,443.4,773.4,400.2,773.4z"/>
	<path class="st0" d="M741.4,412.8c-15.3,0-28.6-11.4-31-26.6c-0.1-0.4-0.1-1-0.1-1.5c0-0.5,0-1-0.1-1.4l-0.2-2.6h-0.3
		c-4-67.3-29.1-130-72.6-181.3C578.1,129.4,491.6,89.4,400,89.4c-72.3,0-142.7,25.4-198.4,71.7l-4.5,3.5l3.7,4.4l0,0l25.4,30.1
		c5.8,6.8,7.5,16,4.4,24.4c-3,8.5-10.1,14.5-19,16.1L61.6,266.6c-1.5,0.3-3.1,0.4-4.6,0.4c0,0,0,0,0,0c-8,0-15.6-4-20.3-10.6
		c-4.7-6.7-5.8-14.9-3-22.6L85.3,90.2c3.6-10,12.8-16.5,23.5-16.5c7.4,0,14.1,3.1,18.9,8.8l29.1,34.3l2.2-1.8
		c34.3-29,72.9-51.4,114.8-66.4c40.5-14.5,82.9-21.9,126.2-21.9c110.1,0,214,48.2,285.1,132.1c51.8,61.1,81.9,136.1,87.1,216.8
		l0,0.2l0,0.2c0.1,0.3,0.1,0.5,0.2,0.8l0,0.1c0.1,0.7,0.1,1.4,0.1,2.1c0,0.4,0,0.9,0,1.3c0,0.2,0,0.5,0.1,0.8c0,0.1,0,0.1,0,0.2
		c0.1,15.5-11.3,28.9-26.5,31.1C744.6,412.6,743,412.8,741.4,412.8z"/>
</g>
</svg>
